# Chair. Origin at floor center.
v -0.22000 0.44000 -0.21000
v 0.22000 0.44000 -0.21000
v 0.22000 0.44000 0.21000
v -0.22000 0.44000 0.21000
v -0.22000 0.48000 0.21000
v 0.22000 0.48000 0.21000
v 0.22000 0.48000 -0.21000
v -0.22000 0.48000 -0.21000
v -0.22000 0.44000 0.21000
v 0.22000 0.44000 0.21000
v 0.22000 0.48000 0.21000
v -0.22000 0.48000 0.21000
v 0.22000 0.44000 -0.21000
v -0.22000 0.44000 -0.21000
v -0.22000 0.48000 -0.21000
v 0.22000 0.48000 -0.21000
v -0.22000 0.44000 -0.21000
v -0.22000 0.44000 0.21000
v -0.22000 0.48000 0.21000
v -0.22000 0.48000 -0.21000
v 0.22000 0.44000 0.21000
v 0.22000 0.44000 -0.21000
v 0.22000 0.48000 -0.21000
v 0.22000 0.48000 0.21000
v -0.20000 0.00000 -0.19000
v -0.16500 0.00000 -0.19000
v -0.16500 0.00000 -0.15500
v -0.20000 0.00000 -0.15500
v -0.20000 0.44000 -0.15500
v -0.16500 0.44000 -0.15500
v -0.16500 0.44000 -0.19000
v -0.20000 0.44000 -0.19000
v -0.20000 0.00000 -0.15500
v -0.16500 0.00000 -0.15500
v -0.16500 0.44000 -0.15500
v -0.20000 0.44000 -0.15500
v -0.16500 0.00000 -0.19000
v -0.20000 0.00000 -0.19000
v -0.20000 0.44000 -0.19000
v -0.16500 0.44000 -0.19000
v -0.20000 0.00000 -0.19000
v -0.20000 0.00000 -0.15500
v -0.20000 0.44000 -0.15500
v -0.20000 0.44000 -0.19000
v -0.16500 0.00000 -0.15500
v -0.16500 0.00000 -0.19000
v -0.16500 0.44000 -0.19000
v -0.16500 0.44000 -0.15500
v 0.16500 0.00000 -0.19000
v 0.20000 0.00000 -0.19000
v 0.20000 0.00000 -0.15500
v 0.16500 0.00000 -0.15500
v 0.16500 0.44000 -0.15500
v 0.20000 0.44000 -0.15500
v 0.20000 0.44000 -0.19000
v 0.16500 0.44000 -0.19000
v 0.16500 0.00000 -0.15500
v 0.20000 0.00000 -0.15500
v 0.20000 0.44000 -0.15500
v 0.16500 0.44000 -0.15500
v 0.20000 0.00000 -0.19000
v 0.16500 0.00000 -0.19000
v 0.16500 0.44000 -0.19000
v 0.20000 0.44000 -0.19000
v 0.16500 0.00000 -0.19000
v 0.16500 0.00000 -0.15500
v 0.16500 0.44000 -0.15500
v 0.16500 0.44000 -0.19000
v 0.20000 0.00000 -0.15500
v 0.20000 0.00000 -0.19000
v 0.20000 0.44000 -0.19000
v 0.20000 0.44000 -0.15500
v -0.20000 0.00000 0.15500
v -0.16500 0.00000 0.15500
v -0.16500 0.00000 0.19000
v -0.20000 0.00000 0.19000
v -0.20000 0.44000 0.19000
v -0.16500 0.44000 0.19000
v -0.16500 0.44000 0.15500
v -0.20000 0.44000 0.15500
v -0.20000 0.00000 0.19000
v -0.16500 0.00000 0.19000
v -0.16500 0.44000 0.19000
v -0.20000 0.44000 0.19000
v -0.16500 0.00000 0.15500
v -0.20000 0.00000 0.15500
v -0.20000 0.44000 0.15500
v -0.16500 0.44000 0.15500
v -0.20000 0.00000 0.15500
v -0.20000 0.00000 0.19000
v -0.20000 0.44000 0.19000
v -0.20000 0.44000 0.15500
v -0.16500 0.00000 0.19000
v -0.16500 0.00000 0.15500
v -0.16500 0.44000 0.15500
v -0.16500 0.44000 0.19000
v 0.16500 0.00000 0.15500
v 0.20000 0.00000 0.15500
v 0.20000 0.00000 0.19000
v 0.16500 0.00000 0.19000
v 0.16500 0.44000 0.19000
v 0.20000 0.44000 0.19000
v 0.20000 0.44000 0.15500
v 0.16500 0.44000 0.15500
v 0.16500 0.00000 0.19000
v 0.20000 0.00000 0.19000
v 0.20000 0.44000 0.19000
v 0.16500 0.44000 0.19000
v 0.20000 0.00000 0.15500
v 0.16500 0.00000 0.15500
v 0.16500 0.44000 0.15500
v 0.20000 0.44000 0.15500
v 0.16500 0.00000 0.15500
v 0.16500 0.00000 0.19000
v 0.16500 0.44000 0.19000
v 0.16500 0.44000 0.15500
v 0.20000 0.00000 0.19000
v 0.20000 0.00000 0.15500
v 0.20000 0.44000 0.15500
v 0.20000 0.44000 0.19000
v -0.20000 0.48000 -0.19500
v -0.16500 0.48000 -0.19500
v -0.16500 0.48000 -0.15500
v -0.20000 0.48000 -0.15500
v -0.20000 0.92000 -0.15500
v -0.16500 0.92000 -0.15500
v -0.16500 0.92000 -0.19500
v -0.20000 0.92000 -0.19500
v -0.20000 0.48000 -0.15500
v -0.16500 0.48000 -0.15500
v -0.16500 0.92000 -0.15500
v -0.20000 0.92000 -0.15500
v -0.16500 0.48000 -0.19500
v -0.20000 0.48000 -0.19500
v -0.20000 0.92000 -0.19500
v -0.16500 0.92000 -0.19500
v -0.20000 0.48000 -0.19500
v -0.20000 0.48000 -0.15500
v -0.20000 0.92000 -0.15500
v -0.20000 0.92000 -0.19500
v -0.16500 0.48000 -0.15500
v -0.16500 0.48000 -0.19500
v -0.16500 0.92000 -0.19500
v -0.16500 0.92000 -0.15500
v 0.16500 0.48000 -0.19500
v 0.20000 0.48000 -0.19500
v 0.20000 0.48000 -0.15500
v 0.16500 0.48000 -0.15500
v 0.16500 0.92000 -0.15500
v 0.20000 0.92000 -0.15500
v 0.20000 0.92000 -0.19500
v 0.16500 0.92000 -0.19500
v 0.16500 0.48000 -0.15500
v 0.20000 0.48000 -0.15500
v 0.20000 0.92000 -0.15500
v 0.16500 0.92000 -0.15500
v 0.20000 0.48000 -0.19500
v 0.16500 0.48000 -0.19500
v 0.16500 0.92000 -0.19500
v 0.20000 0.92000 -0.19500
v 0.16500 0.48000 -0.19500
v 0.16500 0.48000 -0.15500
v 0.16500 0.92000 -0.15500
v 0.16500 0.92000 -0.19500
v 0.20000 0.48000 -0.15500
v 0.20000 0.48000 -0.19500
v 0.20000 0.92000 -0.19500
v 0.20000 0.92000 -0.15500
v -0.22000 0.86000 -0.20000
v 0.22000 0.86000 -0.20000
v 0.22000 0.86000 -0.15000
v -0.22000 0.86000 -0.15000
v -0.22000 0.92000 -0.15000
v 0.22000 0.92000 -0.15000
v 0.22000 0.92000 -0.20000
v -0.22000 0.92000 -0.20000
v -0.22000 0.86000 -0.15000
v 0.22000 0.86000 -0.15000
v 0.22000 0.92000 -0.15000
v -0.22000 0.92000 -0.15000
v 0.22000 0.86000 -0.20000
v -0.22000 0.86000 -0.20000
v -0.22000 0.92000 -0.20000
v 0.22000 0.92000 -0.20000
v -0.22000 0.86000 -0.20000
v -0.22000 0.86000 -0.15000
v -0.22000 0.92000 -0.15000
v -0.22000 0.92000 -0.20000
v 0.22000 0.86000 -0.15000
v 0.22000 0.86000 -0.20000
v 0.22000 0.92000 -0.20000
v 0.22000 0.92000 -0.15000
vn 0.00000 -1.00000 0.00000
vn 0.00000 1.00000 0.00000
vn 0.00000 0.00000 1.00000
vn 0.00000 0.00000 -1.00000
vn -1.00000 0.00000 0.00000
vn 1.00000 0.00000 0.00000
vn 0.00000 -1.00000 0.00000
vn 0.00000 1.00000 0.00000
vn 0.00000 0.00000 1.00000
vn 0.00000 0.00000 -1.00000
vn -1.00000 0.00000 0.00000
vn 1.00000 0.00000 0.00000
vn 0.00000 -1.00000 0.00000
vn 0.00000 1.00000 0.00000
vn 0.00000 0.00000 1.00000
vn 0.00000 0.00000 -1.00000
vn -1.00000 0.00000 0.00000
vn 1.00000 0.00000 0.00000
vn 0.00000 -1.00000 0.00000
vn 0.00000 1.00000 0.00000
vn 0.00000 0.00000 1.00000
vn 0.00000 0.00000 -1.00000
vn -1.00000 0.00000 0.00000
vn 1.00000 0.00000 0.00000
vn 0.00000 -1.00000 0.00000
vn 0.00000 1.00000 0.00000
vn 0.00000 0.00000 1.00000
vn 0.00000 0.00000 -1.00000
vn -1.00000 0.00000 0.00000
vn 1.00000 0.00000 0.00000
vn 0.00000 -1.00000 0.00000
vn 0.00000 1.00000 0.00000
vn 0.00000 0.00000 1.00000
vn 0.00000 0.00000 -1.00000
vn -1.00000 0.00000 0.00000
vn 1.00000 0.00000 0.00000
vn 0.00000 -1.00000 0.00000
vn 0.00000 1.00000 0.00000
vn 0.00000 0.00000 1.00000
vn 0.00000 0.00000 -1.00000
vn -1.00000 0.00000 0.00000
vn 1.00000 0.00000 0.00000
vn 0.00000 -1.00000 0.00000
vn 0.00000 1.00000 0.00000
vn 0.00000 0.00000 1.00000
vn 0.00000 0.00000 -1.00000
vn -1.00000 0.00000 0.00000
vn 1.00000 0.00000 0.00000
f 1//1 2//1 3//1
f 1//1 3//1 4//1
f 5//2 6//2 7//2
f 5//2 7//2 8//2
f 9//3 10//3 11//3
f 9//3 11//3 12//3
f 13//4 14//4 15//4
f 13//4 15//4 16//4
f 17//5 18//5 19//5
f 17//5 19//5 20//5
f 21//6 22//6 23//6
f 21//6 23//6 24//6
f 25//7 26//7 27//7
f 25//7 27//7 28//7
f 29//8 30//8 31//8
f 29//8 31//8 32//8
f 33//9 34//9 35//9
f 33//9 35//9 36//9
f 37//10 38//10 39//10
f 37//10 39//10 40//10
f 41//11 42//11 43//11
f 41//11 43//11 44//11
f 45//12 46//12 47//12
f 45//12 47//12 48//12
f 49//13 50//13 51//13
f 49//13 51//13 52//13
f 53//14 54//14 55//14
f 53//14 55//14 56//14
f 57//15 58//15 59//15
f 57//15 59//15 60//15
f 61//16 62//16 63//16
f 61//16 63//16 64//16
f 65//17 66//17 67//17
f 65//17 67//17 68//17
f 69//18 70//18 71//18
f 69//18 71//18 72//18
f 73//19 74//19 75//19
f 73//19 75//19 76//19
f 77//20 78//20 79//20
f 77//20 79//20 80//20
f 81//21 82//21 83//21
f 81//21 83//21 84//21
f 85//22 86//22 87//22
f 85//22 87//22 88//22
f 89//23 90//23 91//23
f 89//23 91//23 92//23
f 93//24 94//24 95//24
f 93//24 95//24 96//24
f 97//25 98//25 99//25
f 97//25 99//25 100//25
f 101//26 102//26 103//26
f 101//26 103//26 104//26
f 105//27 106//27 107//27
f 105//27 107//27 108//27
f 109//28 110//28 111//28
f 109//28 111//28 112//28
f 113//29 114//29 115//29
f 113//29 115//29 116//29
f 117//30 118//30 119//30
f 117//30 119//30 120//30
f 121//31 122//31 123//31
f 121//31 123//31 124//31
f 125//32 126//32 127//32
f 125//32 127//32 128//32
f 129//33 130//33 131//33
f 129//33 131//33 132//33
f 133//34 134//34 135//34
f 133//34 135//34 136//34
f 137//35 138//35 139//35
f 137//35 139//35 140//35
f 141//36 142//36 143//36
f 141//36 143//36 144//36
f 145//37 146//37 147//37
f 145//37 147//37 148//37
f 149//38 150//38 151//38
f 149//38 151//38 152//38
f 153//39 154//39 155//39
f 153//39 155//39 156//39
f 157//40 158//40 159//40
f 157//40 159//40 160//40
f 161//41 162//41 163//41
f 161//41 163//41 164//41
f 165//42 166//42 167//42
f 165//42 167//42 168//42
f 169//43 170//43 171//43
f 169//43 171//43 172//43
f 173//44 174//44 175//44
f 173//44 175//44 176//44
f 177//45 178//45 179//45
f 177//45 179//45 180//45
f 181//46 182//46 183//46
f 181//46 183//46 184//46
f 185//47 186//47 187//47
f 185//47 187//47 188//47
f 189//48 190//48 191//48
f 189//48 191//48 192//48
